<mxfile host="Electron" modified="2024-04-04T05:53:03.029Z" agent="Mozilla/5.0 (X11; Linux x86_64) AppleWebKit/537.36 (KHTML, like Gecko) draw.io/24.1.0 Chrome/120.0.6099.109 Electron/28.1.0 Safari/537.36" etag="ECmv_O6hFBnLYjdjgHIK" version="24.1.0" type="device" pages="2">
  <diagram name="Page-1" id="5f0bae14-7c28-e335-631c-24af17079c00">
    <mxGraphModel dx="1245" dy="725" grid="1" gridSize="10" guides="1" tooltips="1" connect="1" arrows="1" fold="1" page="1" pageScale="1" pageWidth="1100" pageHeight="850" background="none" math="0" shadow="0">
      <root>
        <mxCell id="0" />
        <mxCell id="1" parent="0" />
        <mxCell id="39150e848f15840c-1" value="Block" style="verticalAlign=top;align=left;spacingTop=8;spacingLeft=2;spacingRight=12;shape=cube;size=10;direction=south;fontStyle=4;html=1;rounded=0;shadow=0;comic=0;labelBackgroundColor=none;strokeWidth=1;fontFamily=Verdana;fontSize=12" parent="1" vertex="1">
          <mxGeometry x="120" y="70" width="330" height="220" as="geometry" />
        </mxCell>
        <mxCell id="39150e848f15840c-2" value="Block" style="verticalAlign=top;align=left;spacingTop=8;spacingLeft=2;spacingRight=12;shape=cube;size=10;direction=south;fontStyle=4;html=1;rounded=0;shadow=0;comic=0;labelBackgroundColor=none;strokeWidth=1;fontFamily=Verdana;fontSize=12" parent="1" vertex="1">
          <mxGeometry x="530" y="70" width="330" height="220" as="geometry" />
        </mxCell>
        <mxCell id="39150e848f15840c-3" value="Block" style="verticalAlign=top;align=left;spacingTop=8;spacingLeft=2;spacingRight=12;shape=cube;size=10;direction=south;fontStyle=4;html=1;rounded=0;shadow=0;comic=0;labelBackgroundColor=none;strokeWidth=1;fontFamily=Verdana;fontSize=12" parent="1" vertex="1">
          <mxGeometry x="370" y="410" width="260" height="150" as="geometry" />
        </mxCell>
        <mxCell id="39150e848f15840c-4" value="&amp;laquo;interface&amp;raquo;&lt;br&gt;&lt;b&gt;Name&lt;/b&gt;" style="html=1;rounded=0;shadow=0;comic=0;labelBackgroundColor=none;strokeWidth=1;fontFamily=Verdana;fontSize=12;align=center;" parent="1" vertex="1">
          <mxGeometry x="160" y="140" width="110" height="50" as="geometry" />
        </mxCell>
        <mxCell id="39150e848f15840c-5" value="Module" style="shape=component;align=left;spacingLeft=36;rounded=0;shadow=0;comic=0;labelBackgroundColor=none;strokeWidth=1;fontFamily=Verdana;fontSize=12;html=1;" parent="1" vertex="1">
          <mxGeometry x="310" y="135" width="120" height="60" as="geometry" />
        </mxCell>
        <mxCell id="39150e848f15840c-6" value="" style="ellipse;whiteSpace=wrap;html=1;rounded=0;shadow=0;comic=0;labelBackgroundColor=none;strokeWidth=1;fontFamily=Verdana;fontSize=12;align=center;" parent="1" vertex="1">
          <mxGeometry x="360" y="230" width="20" height="20" as="geometry" />
        </mxCell>
        <mxCell id="39150e848f15840c-7" value="Module" style="shape=component;align=left;spacingLeft=36;rounded=0;shadow=0;comic=0;labelBackgroundColor=none;strokeWidth=1;fontFamily=Verdana;fontSize=12;html=1;" parent="1" vertex="1">
          <mxGeometry x="560" y="135" width="120" height="60" as="geometry" />
        </mxCell>
        <mxCell id="39150e848f15840c-8" value="&amp;laquo;interface&amp;raquo;&lt;br&gt;&lt;b&gt;Name&lt;/b&gt;" style="html=1;rounded=0;shadow=0;comic=0;labelBackgroundColor=none;strokeWidth=1;fontFamily=Verdana;fontSize=12;align=center;" parent="1" vertex="1">
          <mxGeometry x="720" y="140" width="110" height="50" as="geometry" />
        </mxCell>
        <mxCell id="39150e848f15840c-9" value="" style="ellipse;whiteSpace=wrap;html=1;rounded=0;shadow=0;comic=0;labelBackgroundColor=none;strokeWidth=1;fontFamily=Verdana;fontSize=12;align=center;" parent="1" vertex="1">
          <mxGeometry x="620" y="230" width="20" height="20" as="geometry" />
        </mxCell>
        <mxCell id="39150e848f15840c-10" value="Module" style="shape=component;align=left;spacingLeft=36;rounded=0;shadow=0;comic=0;labelBackgroundColor=none;strokeWidth=1;fontFamily=Verdana;fontSize=12;html=1;" parent="1" vertex="1">
          <mxGeometry x="440" y="460" width="120" height="60" as="geometry" />
        </mxCell>
        <mxCell id="39150e848f15840c-11" style="edgeStyle=none;rounded=0;html=1;dashed=1;labelBackgroundColor=none;startArrow=none;startFill=0;startSize=8;endArrow=open;endFill=0;endSize=16;fontFamily=Verdana;fontSize=12;" parent="1" source="39150e848f15840c-10" target="39150e848f15840c-6" edge="1">
          <mxGeometry relative="1" as="geometry" />
        </mxCell>
        <mxCell id="39150e848f15840c-12" style="edgeStyle=none;rounded=0;html=1;dashed=1;labelBackgroundColor=none;startArrow=none;startFill=0;startSize=8;endArrow=open;endFill=0;endSize=16;fontFamily=Verdana;fontSize=12;" parent="1" source="39150e848f15840c-3" target="39150e848f15840c-9" edge="1">
          <mxGeometry relative="1" as="geometry" />
        </mxCell>
        <mxCell id="39150e848f15840c-13" style="edgeStyle=elbowEdgeStyle;rounded=0;html=1;labelBackgroundColor=none;startArrow=none;startFill=0;startSize=8;endArrow=none;endFill=0;endSize=16;fontFamily=Verdana;fontSize=12;" parent="1" source="39150e848f15840c-9" target="39150e848f15840c-7" edge="1">
          <mxGeometry relative="1" as="geometry" />
        </mxCell>
        <mxCell id="39150e848f15840c-14" style="edgeStyle=elbowEdgeStyle;rounded=0;html=1;labelBackgroundColor=none;startArrow=none;startFill=0;startSize=8;endArrow=none;endFill=0;endSize=16;fontFamily=Verdana;fontSize=12;" parent="1" source="39150e848f15840c-6" target="39150e848f15840c-5" edge="1">
          <mxGeometry relative="1" as="geometry" />
        </mxCell>
        <mxCell id="39150e848f15840c-15" style="edgeStyle=orthogonalEdgeStyle;rounded=0;html=1;labelBackgroundColor=none;startArrow=none;startFill=0;startSize=8;endArrow=open;endFill=0;endSize=16;fontFamily=Verdana;fontSize=12;dashed=1;" parent="1" source="39150e848f15840c-5" target="39150e848f15840c-4" edge="1">
          <mxGeometry relative="1" as="geometry">
            <Array as="points">
              <mxPoint x="350" y="220" />
              <mxPoint x="215" y="220" />
            </Array>
          </mxGeometry>
        </mxCell>
        <mxCell id="39150e848f15840c-16" style="edgeStyle=orthogonalEdgeStyle;rounded=0;html=1;dashed=1;labelBackgroundColor=none;startArrow=none;startFill=0;startSize=8;endArrow=open;endFill=0;endSize=16;fontFamily=Verdana;fontSize=12;" parent="1" source="39150e848f15840c-7" target="39150e848f15840c-8" edge="1">
          <mxGeometry relative="1" as="geometry" />
        </mxCell>
        <mxCell id="39150e848f15840c-17" style="edgeStyle=orthogonalEdgeStyle;rounded=0;html=1;labelBackgroundColor=none;startArrow=none;startFill=0;startSize=8;endArrow=none;endFill=0;endSize=16;fontFamily=Verdana;fontSize=12;" parent="1" source="39150e848f15840c-3" target="39150e848f15840c-2" edge="1">
          <mxGeometry relative="1" as="geometry">
            <Array as="points">
              <mxPoint x="695" y="485" />
            </Array>
          </mxGeometry>
        </mxCell>
        <mxCell id="39150e848f15840c-18" style="edgeStyle=orthogonalEdgeStyle;rounded=0;html=1;labelBackgroundColor=none;startArrow=none;startFill=0;startSize=8;endArrow=none;endFill=0;endSize=16;fontFamily=Verdana;fontSize=12;" parent="1" source="39150e848f15840c-3" target="39150e848f15840c-1" edge="1">
          <mxGeometry relative="1" as="geometry">
            <Array as="points">
              <mxPoint x="285" y="485" />
            </Array>
          </mxGeometry>
        </mxCell>
      </root>
    </mxGraphModel>
  </diagram>
  <diagram id="QSarBG4R4bF0ckv9TLQI" name="Page-2">
    <mxGraphModel dx="2993" dy="1388" grid="0" gridSize="10" guides="1" tooltips="1" connect="1" arrows="1" fold="1" page="0" pageScale="1" pageWidth="850" pageHeight="1100" math="0" shadow="0">
      <root>
        <mxCell id="0" />
        <mxCell id="1" parent="0" />
        <mxCell id="G-_METhPcSWniNXT3BM8-1" value="User" style="swimlane;whiteSpace=wrap;html=1;fillColor=#f8cecc;strokeColor=#b85450;" vertex="1" parent="1">
          <mxGeometry x="-240" y="110" width="568" height="373" as="geometry">
            <mxRectangle x="-168" y="108" width="60" height="26" as="alternateBounds" />
          </mxGeometry>
        </mxCell>
        <mxCell id="G-_METhPcSWniNXT3BM8-10" value="Namespace : ./Model/User&lt;div&gt;User&lt;/div&gt;" style="swimlane;whiteSpace=wrap;html=1;startSize=37;fillColor=#dae8fc;strokeColor=#6c8ebf;" vertex="1" parent="G-_METhPcSWniNXT3BM8-1">
          <mxGeometry x="10" y="30" width="376" height="330" as="geometry" />
        </mxCell>
        <mxCell id="G-_METhPcSWniNXT3BM8-33" value="init" style="edgeStyle=orthogonalEdgeStyle;orthogonalLoop=1;jettySize=auto;html=1;exitX=1;exitY=0.5;exitDx=0;exitDy=0;entryX=1;entryY=0.5;entryDx=0;entryDy=0;" edge="1" parent="G-_METhPcSWniNXT3BM8-10" source="G-_METhPcSWniNXT3BM8-8" target="G-_METhPcSWniNXT3BM8-6">
          <mxGeometry relative="1" as="geometry" />
        </mxCell>
        <mxCell id="G-_METhPcSWniNXT3BM8-34" value="init&lt;div&gt;to&lt;/div&gt;&lt;div&gt;Bronze&lt;/div&gt;" style="edgeStyle=orthogonalEdgeStyle;orthogonalLoop=1;jettySize=auto;html=1;exitX=1;exitY=0.5;exitDx=0;exitDy=0;entryX=1;entryY=0.5;entryDx=0;entryDy=0;" edge="1" parent="G-_METhPcSWniNXT3BM8-10" source="G-_METhPcSWniNXT3BM8-8" target="G-_METhPcSWniNXT3BM8-15">
          <mxGeometry x="0.1151" relative="1" as="geometry">
            <mxPoint as="offset" />
          </mxGeometry>
        </mxCell>
        <mxCell id="G-_METhPcSWniNXT3BM8-8" value="Ctor(seedMoney : int)" style="rhombus;whiteSpace=wrap;html=1;" vertex="1" parent="G-_METhPcSWniNXT3BM8-10">
          <mxGeometry x="10" y="50" width="200" height="50" as="geometry" />
        </mxCell>
        <mxCell id="G-_METhPcSWniNXT3BM8-6" value="SeedMoney : int { get; set; }" style="rounded=1;whiteSpace=wrap;html=1;" vertex="1" parent="G-_METhPcSWniNXT3BM8-10">
          <mxGeometry x="10" y="110" width="200" height="30" as="geometry" />
        </mxCell>
        <mxCell id="G-_METhPcSWniNXT3BM8-9" value="OrderList : List&amp;lt;Order&amp;gt; { get; }" style="rounded=1;whiteSpace=wrap;html=1;" vertex="1" parent="G-_METhPcSWniNXT3BM8-10">
          <mxGeometry x="10" y="150" width="200" height="30" as="geometry" />
        </mxCell>
        <mxCell id="G-_METhPcSWniNXT3BM8-15" value="MembershipLevel : IMembership { get; private set; }" style="rounded=1;whiteSpace=wrap;html=1;" vertex="1" parent="G-_METhPcSWniNXT3BM8-10">
          <mxGeometry x="10" y="192" width="306" height="30" as="geometry" />
        </mxCell>
        <mxCell id="G-_METhPcSWniNXT3BM8-115" style="edgeStyle=orthogonalEdgeStyle;orthogonalLoop=1;jettySize=auto;html=1;exitX=1;exitY=0.5;exitDx=0;exitDy=0;entryX=1;entryY=0.5;entryDx=0;entryDy=0;" edge="1" parent="G-_METhPcSWniNXT3BM8-10" source="G-_METhPcSWniNXT3BM8-18" target="G-_METhPcSWniNXT3BM8-9">
          <mxGeometry relative="1" as="geometry">
            <Array as="points">
              <mxPoint x="416" y="301" />
              <mxPoint x="416" y="165" />
            </Array>
          </mxGeometry>
        </mxCell>
        <mxCell id="G-_METhPcSWniNXT3BM8-116" value="Reference" style="edgeStyle=orthogonalEdgeStyle;orthogonalLoop=1;jettySize=auto;html=1;exitX=1;exitY=0.5;exitDx=0;exitDy=0;entryX=1;entryY=0.5;entryDx=0;entryDy=0;endArrow=none;endFill=0;" edge="1" parent="G-_METhPcSWniNXT3BM8-10" source="G-_METhPcSWniNXT3BM8-18" target="G-_METhPcSWniNXT3BM8-15">
          <mxGeometry x="0.2759" y="-2" relative="1" as="geometry">
            <Array as="points">
              <mxPoint x="416" y="301" />
              <mxPoint x="416" y="207" />
            </Array>
            <mxPoint as="offset" />
          </mxGeometry>
        </mxCell>
        <mxCell id="G-_METhPcSWniNXT3BM8-18" value="UpdateMembership() : void" style="whiteSpace=wrap;html=1;" vertex="1" parent="G-_METhPcSWniNXT3BM8-10">
          <mxGeometry x="10" y="285" width="205" height="32" as="geometry" />
        </mxCell>
        <mxCell id="G-_METhPcSWniNXT3BM8-37" value="ToString() : string" style="whiteSpace=wrap;html=1;fillColor=#d5e8d4;strokeColor=#82b366;" vertex="1" parent="G-_METhPcSWniNXT3BM8-10">
          <mxGeometry x="10" y="238" width="205" height="32" as="geometry" />
        </mxCell>
        <mxCell id="G-_METhPcSWniNXT3BM8-99" value="&lt;div&gt;returns&lt;/div&gt;Formatted string" style="shape=note;strokeWidth=2;fontSize=11;size=20;whiteSpace=wrap;html=1;fillColor=#fff2cc;strokeColor=#d6b656;fontColor=#666600;" vertex="1" parent="G-_METhPcSWniNXT3BM8-10">
          <mxGeometry x="253" y="230" width="110" height="48" as="geometry" />
        </mxCell>
        <mxCell id="G-_METhPcSWniNXT3BM8-100" value="" style="edgeStyle=orthogonalEdgeStyle;orthogonalLoop=1;jettySize=auto;html=1;endArrow=none;endFill=0;" edge="1" parent="G-_METhPcSWniNXT3BM8-10" source="G-_METhPcSWniNXT3BM8-99" target="G-_METhPcSWniNXT3BM8-37">
          <mxGeometry relative="1" as="geometry" />
        </mxCell>
        <mxCell id="G-_METhPcSWniNXT3BM8-3" value="Order" style="swimlane;whiteSpace=wrap;html=1;startSize=24;fillColor=#f8cecc;strokeColor=#b85450;" vertex="1" parent="1">
          <mxGeometry x="-909" y="92" width="526" height="476" as="geometry" />
        </mxCell>
        <mxCell id="G-_METhPcSWniNXT3BM8-67" value="Namespace : ./Model/Order&lt;br&gt;&lt;div&gt;Order&lt;/div&gt;" style="swimlane;whiteSpace=wrap;html=1;startSize=37;fillColor=#dae8fc;strokeColor=#6c8ebf;" vertex="1" parent="G-_METhPcSWniNXT3BM8-3">
          <mxGeometry x="18" y="35" width="381" height="203" as="geometry" />
        </mxCell>
        <mxCell id="G-_METhPcSWniNXT3BM8-77" style="edgeStyle=orthogonalEdgeStyle;orthogonalLoop=1;jettySize=auto;html=1;exitX=1;exitY=0.5;exitDx=0;exitDy=0;entryX=1;entryY=0.5;entryDx=0;entryDy=0;" edge="1" parent="G-_METhPcSWniNXT3BM8-67" source="G-_METhPcSWniNXT3BM8-70" target="G-_METhPcSWniNXT3BM8-76">
          <mxGeometry relative="1" as="geometry" />
        </mxCell>
        <mxCell id="G-_METhPcSWniNXT3BM8-78" value="init" style="edgeStyle=orthogonalEdgeStyle;orthogonalLoop=1;jettySize=auto;html=1;exitX=1;exitY=0.5;exitDx=0;exitDy=0;entryX=1;entryY=0.5;entryDx=0;entryDy=0;" edge="1" parent="G-_METhPcSWniNXT3BM8-67" source="G-_METhPcSWniNXT3BM8-70" target="G-_METhPcSWniNXT3BM8-71">
          <mxGeometry x="-0.4835" relative="1" as="geometry">
            <mxPoint as="offset" />
          </mxGeometry>
        </mxCell>
        <mxCell id="G-_METhPcSWniNXT3BM8-70" value="Ctor(product : AbstractProduct, quantity : int)" style="rhombus;whiteSpace=wrap;html=1;" vertex="1" parent="G-_METhPcSWniNXT3BM8-67">
          <mxGeometry x="10" y="50" width="334" height="50" as="geometry" />
        </mxCell>
        <mxCell id="G-_METhPcSWniNXT3BM8-71" value="Product : AbstractProduct { get; set; }" style="rounded=1;whiteSpace=wrap;html=1;" vertex="1" parent="G-_METhPcSWniNXT3BM8-67">
          <mxGeometry x="10" y="116" width="248" height="30" as="geometry" />
        </mxCell>
        <mxCell id="G-_METhPcSWniNXT3BM8-76" value="Quantity : int { get; set; }" style="rounded=1;whiteSpace=wrap;html=1;" vertex="1" parent="G-_METhPcSWniNXT3BM8-67">
          <mxGeometry x="10" y="156" width="248" height="30" as="geometry" />
        </mxCell>
        <mxCell id="G-_METhPcSWniNXT3BM8-101" value="Namespace : ./...&lt;br&gt;&lt;div&gt;OrderManager&lt;/div&gt;" style="swimlane;whiteSpace=wrap;html=1;startSize=37;fillColor=#e1d5e7;strokeColor=#9673a6;" vertex="1" parent="G-_METhPcSWniNXT3BM8-3">
          <mxGeometry x="18" y="258" width="488" height="203" as="geometry" />
        </mxCell>
        <mxCell id="G-_METhPcSWniNXT3BM8-107" value="DI" style="edgeStyle=orthogonalEdgeStyle;orthogonalLoop=1;jettySize=auto;html=1;exitX=1;exitY=0.5;exitDx=0;exitDy=0;entryX=1;entryY=0.5;entryDx=0;entryDy=0;fontStyle=1;fontColor=#FF0A1B;" edge="1" parent="G-_METhPcSWniNXT3BM8-101" source="G-_METhPcSWniNXT3BM8-104" target="G-_METhPcSWniNXT3BM8-105">
          <mxGeometry x="0.4178" relative="1" as="geometry">
            <mxPoint as="offset" />
          </mxGeometry>
        </mxCell>
        <mxCell id="G-_METhPcSWniNXT3BM8-104" value="Ctor(product : AbstractProduct, quantity : int)" style="rhombus;whiteSpace=wrap;html=1;" vertex="1" parent="G-_METhPcSWniNXT3BM8-101">
          <mxGeometry x="10" y="50" width="334" height="50" as="geometry" />
        </mxCell>
        <mxCell id="G-_METhPcSWniNXT3BM8-105" value="CurrentUser : User { get; }" style="rounded=1;whiteSpace=wrap;html=1;" vertex="1" parent="G-_METhPcSWniNXT3BM8-101">
          <mxGeometry x="10" y="116" width="248" height="30" as="geometry" />
        </mxCell>
        <mxCell id="G-_METhPcSWniNXT3BM8-111" value="CreateOrder(product : AbstractProduct, quantity : int) : AbstractProduct" style="whiteSpace=wrap;html=1;" vertex="1" parent="G-_METhPcSWniNXT3BM8-101">
          <mxGeometry x="10" y="159" width="440" height="32" as="geometry" />
        </mxCell>
        <mxCell id="G-_METhPcSWniNXT3BM8-4" value="Membership" style="swimlane;whiteSpace=wrap;html=1;fillColor=#f8cecc;strokeColor=#b85450;" vertex="1" parent="1">
          <mxGeometry x="-240" y="-222" width="518" height="314" as="geometry" />
        </mxCell>
        <mxCell id="G-_METhPcSWniNXT3BM8-19" value="&lt;div&gt;Namespace: ./Model/User/&lt;/div&gt;IMembership" style="swimlane;whiteSpace=wrap;html=1;startSize=34;fillColor=#60a917;strokeColor=#2D7600;fontColor=#ffffff;" vertex="1" parent="G-_METhPcSWniNXT3BM8-4">
          <mxGeometry x="9" y="113" width="223" height="89" as="geometry" />
        </mxCell>
        <mxCell id="G-_METhPcSWniNXT3BM8-29" value="GetDiscountRate() : double" style="whiteSpace=wrap;html=1;" vertex="1" parent="G-_METhPcSWniNXT3BM8-19">
          <mxGeometry x="10.25" y="43" width="202.5" height="32" as="geometry" />
        </mxCell>
        <mxCell id="G-_METhPcSWniNXT3BM8-59" style="edgeStyle=orthogonalEdgeStyle;orthogonalLoop=1;jettySize=auto;html=1;entryX=1;entryY=0.5;entryDx=0;entryDy=0;dashed=1;endArrow=block;endFill=0;" edge="1" parent="G-_METhPcSWniNXT3BM8-4" source="G-_METhPcSWniNXT3BM8-30" target="G-_METhPcSWniNXT3BM8-19">
          <mxGeometry relative="1" as="geometry" />
        </mxCell>
        <mxCell id="G-_METhPcSWniNXT3BM8-30" value="Bronze" style="swimlane;whiteSpace=wrap;html=1;fillColor=#dae8fc;strokeColor=#6c8ebf;" vertex="1" parent="G-_METhPcSWniNXT3BM8-4">
          <mxGeometry x="284" y="37" width="223" height="78" as="geometry" />
        </mxCell>
        <mxCell id="G-_METhPcSWniNXT3BM8-31" value="GetDiscountRate() : double" style="whiteSpace=wrap;html=1;" vertex="1" parent="G-_METhPcSWniNXT3BM8-30">
          <mxGeometry x="9" y="32" width="202.5" height="32" as="geometry" />
        </mxCell>
        <mxCell id="G-_METhPcSWniNXT3BM8-60" style="edgeStyle=orthogonalEdgeStyle;orthogonalLoop=1;jettySize=auto;html=1;exitX=0;exitY=0.5;exitDx=0;exitDy=0;entryX=1;entryY=0.5;entryDx=0;entryDy=0;dashed=1;endArrow=block;endFill=0;" edge="1" parent="G-_METhPcSWniNXT3BM8-4" source="G-_METhPcSWniNXT3BM8-35" target="G-_METhPcSWniNXT3BM8-19">
          <mxGeometry relative="1" as="geometry" />
        </mxCell>
        <mxCell id="G-_METhPcSWniNXT3BM8-35" value="Silver" style="swimlane;whiteSpace=wrap;html=1;fillColor=#dae8fc;strokeColor=#6c8ebf;" vertex="1" parent="G-_METhPcSWniNXT3BM8-4">
          <mxGeometry x="284" y="130" width="223" height="78" as="geometry" />
        </mxCell>
        <mxCell id="G-_METhPcSWniNXT3BM8-36" value="GetDiscountRate() : double" style="whiteSpace=wrap;html=1;" vertex="1" parent="G-_METhPcSWniNXT3BM8-35">
          <mxGeometry x="9" y="32" width="202.5" height="32" as="geometry" />
        </mxCell>
        <mxCell id="G-_METhPcSWniNXT3BM8-61" style="edgeStyle=orthogonalEdgeStyle;orthogonalLoop=1;jettySize=auto;html=1;entryX=1;entryY=0.5;entryDx=0;entryDy=0;dashed=1;endArrow=block;endFill=0;" edge="1" parent="G-_METhPcSWniNXT3BM8-4" source="G-_METhPcSWniNXT3BM8-38" target="G-_METhPcSWniNXT3BM8-19">
          <mxGeometry relative="1" as="geometry" />
        </mxCell>
        <mxCell id="G-_METhPcSWniNXT3BM8-38" value="..." style="swimlane;whiteSpace=wrap;html=1;fillColor=#dae8fc;strokeColor=#6c8ebf;" vertex="1" parent="G-_METhPcSWniNXT3BM8-4">
          <mxGeometry x="284" y="223" width="223" height="78" as="geometry" />
        </mxCell>
        <mxCell id="G-_METhPcSWniNXT3BM8-39" value="GetDiscountRate() : double" style="whiteSpace=wrap;html=1;" vertex="1" parent="G-_METhPcSWniNXT3BM8-38">
          <mxGeometry x="9" y="32" width="202.5" height="32" as="geometry" />
        </mxCell>
        <mxCell id="G-_METhPcSWniNXT3BM8-2" value="Product" style="swimlane;whiteSpace=wrap;html=1;fillColor=#f8cecc;strokeColor=#b85450;" vertex="1" parent="1">
          <mxGeometry x="-909" y="621" width="683" height="540" as="geometry" />
        </mxCell>
        <mxCell id="G-_METhPcSWniNXT3BM8-44" value="&lt;div&gt;Namespace: ./Model/Product&lt;/div&gt;&lt;div&gt;AbstractProduct&lt;/div&gt;" style="swimlane;whiteSpace=wrap;html=1;startSize=34;fillColor=#1ba1e2;strokeColor=#006EAF;fontColor=#ffffff;" vertex="1" parent="G-_METhPcSWniNXT3BM8-2">
          <mxGeometry x="13" y="33" width="321" height="199" as="geometry" />
        </mxCell>
        <mxCell id="G-_METhPcSWniNXT3BM8-49" style="edgeStyle=orthogonalEdgeStyle;orthogonalLoop=1;jettySize=auto;html=1;exitX=1;exitY=0.5;exitDx=0;exitDy=0;entryX=1;entryY=0.5;entryDx=0;entryDy=0;" edge="1" parent="G-_METhPcSWniNXT3BM8-44" source="G-_METhPcSWniNXT3BM8-46" target="G-_METhPcSWniNXT3BM8-47">
          <mxGeometry relative="1" as="geometry" />
        </mxCell>
        <mxCell id="G-_METhPcSWniNXT3BM8-50" value="init" style="edgeStyle=orthogonalEdgeStyle;orthogonalLoop=1;jettySize=auto;html=1;exitX=1;exitY=0.5;exitDx=0;exitDy=0;entryX=1;entryY=0.5;entryDx=0;entryDy=0;" edge="1" parent="G-_METhPcSWniNXT3BM8-44" source="G-_METhPcSWniNXT3BM8-46" target="G-_METhPcSWniNXT3BM8-48">
          <mxGeometry x="-0.5082" relative="1" as="geometry">
            <mxPoint as="offset" />
          </mxGeometry>
        </mxCell>
        <mxCell id="G-_METhPcSWniNXT3BM8-46" value="Ctor(name : string, price : int)" style="rhombus;whiteSpace=wrap;html=1;" vertex="1" parent="G-_METhPcSWniNXT3BM8-44">
          <mxGeometry x="8" y="47" width="255" height="50" as="geometry" />
        </mxCell>
        <mxCell id="G-_METhPcSWniNXT3BM8-47" value="name : string { get; set; }" style="rounded=1;whiteSpace=wrap;html=1;" vertex="1" parent="G-_METhPcSWniNXT3BM8-44">
          <mxGeometry x="11" y="117" width="208" height="30" as="geometry" />
        </mxCell>
        <mxCell id="G-_METhPcSWniNXT3BM8-48" value="price : int { get; set; }" style="rounded=1;whiteSpace=wrap;html=1;" vertex="1" parent="G-_METhPcSWniNXT3BM8-44">
          <mxGeometry x="11" y="156" width="208" height="30" as="geometry" />
        </mxCell>
        <mxCell id="G-_METhPcSWniNXT3BM8-54" style="edgeStyle=orthogonalEdgeStyle;orthogonalLoop=1;jettySize=auto;html=1;entryX=1;entryY=0.5;entryDx=0;entryDy=0;endArrow=block;endFill=0;" edge="1" parent="G-_METhPcSWniNXT3BM8-2" source="G-_METhPcSWniNXT3BM8-51" target="G-_METhPcSWniNXT3BM8-44">
          <mxGeometry relative="1" as="geometry" />
        </mxCell>
        <mxCell id="G-_METhPcSWniNXT3BM8-51" value="Electronic" style="swimlane;whiteSpace=wrap;html=1;fillColor=#dae8fc;strokeColor=#6c8ebf;" vertex="1" parent="G-_METhPcSWniNXT3BM8-2">
          <mxGeometry x="403" y="33" width="264.25" height="81" as="geometry" />
        </mxCell>
        <mxCell id="G-_METhPcSWniNXT3BM8-62" value="Ctor(name : string, price : int)" style="rhombus;whiteSpace=wrap;html=1;" vertex="1" parent="G-_METhPcSWniNXT3BM8-51">
          <mxGeometry x="9.25" y="30" width="243.75" height="40" as="geometry" />
        </mxCell>
        <mxCell id="G-_METhPcSWniNXT3BM8-65" style="edgeStyle=orthogonalEdgeStyle;orthogonalLoop=1;jettySize=auto;html=1;entryX=1;entryY=0.5;entryDx=0;entryDy=0;endArrow=block;endFill=0;" edge="1" parent="G-_METhPcSWniNXT3BM8-2" source="G-_METhPcSWniNXT3BM8-63" target="G-_METhPcSWniNXT3BM8-44">
          <mxGeometry relative="1" as="geometry" />
        </mxCell>
        <mxCell id="G-_METhPcSWniNXT3BM8-63" value="Food" style="swimlane;whiteSpace=wrap;html=1;fillColor=#dae8fc;strokeColor=#6c8ebf;" vertex="1" parent="G-_METhPcSWniNXT3BM8-2">
          <mxGeometry x="403" y="133" width="264.25" height="81" as="geometry" />
        </mxCell>
        <mxCell id="G-_METhPcSWniNXT3BM8-64" value="Ctor(name : string, price : int)" style="rhombus;whiteSpace=wrap;html=1;" vertex="1" parent="G-_METhPcSWniNXT3BM8-63">
          <mxGeometry x="9.25" y="30" width="243.75" height="40" as="geometry" />
        </mxCell>
        <mxCell id="G-_METhPcSWniNXT3BM8-81" value="&lt;div&gt;Namespace: ./...&lt;/div&gt;&lt;div&gt;ProductManager&lt;/div&gt;" style="swimlane;whiteSpace=wrap;html=1;startSize=34;fillColor=#e1d5e7;strokeColor=#9673a6;" vertex="1" parent="G-_METhPcSWniNXT3BM8-2">
          <mxGeometry x="13" y="241" width="265" height="289" as="geometry" />
        </mxCell>
        <mxCell id="G-_METhPcSWniNXT3BM8-82" value="init" style="edgeStyle=orthogonalEdgeStyle;orthogonalLoop=1;jettySize=auto;html=1;exitX=1;exitY=0.5;exitDx=0;exitDy=0;entryX=1;entryY=0.5;entryDx=0;entryDy=0;" edge="1" parent="G-_METhPcSWniNXT3BM8-81" source="G-_METhPcSWniNXT3BM8-84" target="G-_METhPcSWniNXT3BM8-85">
          <mxGeometry relative="1" as="geometry" />
        </mxCell>
        <mxCell id="G-_METhPcSWniNXT3BM8-84" value="Ctor()" style="rhombus;whiteSpace=wrap;html=1;" vertex="1" parent="G-_METhPcSWniNXT3BM8-81">
          <mxGeometry x="8" y="47" width="109" height="50" as="geometry" />
        </mxCell>
        <mxCell id="G-_METhPcSWniNXT3BM8-85" value="ProductList : List&amp;lt;Product&amp;gt; { get; }" style="rounded=1;whiteSpace=wrap;html=1;" vertex="1" parent="G-_METhPcSWniNXT3BM8-81">
          <mxGeometry x="11" y="117" width="208" height="30" as="geometry" />
        </mxCell>
        <mxCell id="G-_METhPcSWniNXT3BM8-87" value="AddProduct(product : Product) : void" style="whiteSpace=wrap;html=1;" vertex="1" parent="G-_METhPcSWniNXT3BM8-81">
          <mxGeometry x="11" y="157" width="235" height="32" as="geometry" />
        </mxCell>
        <mxCell id="G-_METhPcSWniNXT3BM8-88" value="RemoveProduct(product : Product) : void" style="whiteSpace=wrap;html=1;" vertex="1" parent="G-_METhPcSWniNXT3BM8-81">
          <mxGeometry x="11" y="199" width="235" height="32" as="geometry" />
        </mxCell>
        <mxCell id="G-_METhPcSWniNXT3BM8-90" value="ToString() : string" style="whiteSpace=wrap;html=1;fillColor=#d5e8d4;strokeColor=#82b366;" vertex="1" parent="G-_METhPcSWniNXT3BM8-81">
          <mxGeometry x="11" y="241" width="235" height="32" as="geometry" />
        </mxCell>
        <mxCell id="G-_METhPcSWniNXT3BM8-97" value="&lt;div&gt;returns&lt;/div&gt;Formatted string" style="shape=note;strokeWidth=2;fontSize=11;size=20;whiteSpace=wrap;html=1;fillColor=#fff2cc;strokeColor=#d6b656;fontColor=#666600;" vertex="1" parent="G-_METhPcSWniNXT3BM8-2">
          <mxGeometry x="302" y="474" width="110" height="48" as="geometry" />
        </mxCell>
        <mxCell id="G-_METhPcSWniNXT3BM8-98" value="" style="edgeStyle=orthogonalEdgeStyle;orthogonalLoop=1;jettySize=auto;html=1;endArrow=none;endFill=0;" edge="1" parent="G-_METhPcSWniNXT3BM8-2" source="G-_METhPcSWniNXT3BM8-90" target="G-_METhPcSWniNXT3BM8-97">
          <mxGeometry relative="1" as="geometry" />
        </mxCell>
        <mxCell id="_nXWak0Q8CbcP-SNSe5I-13" value="create and put(Sample Products)" style="shape=note;strokeWidth=2;fontSize=11;size=20;whiteSpace=wrap;html=1;fillColor=#fff2cc;strokeColor=#d6b656;fontColor=#666600;" vertex="1" parent="G-_METhPcSWniNXT3BM8-2">
          <mxGeometry x="302" y="391" width="215" height="48" as="geometry" />
        </mxCell>
        <mxCell id="_nXWak0Q8CbcP-SNSe5I-14" value="" style="edgeStyle=orthogonalEdgeStyle;orthogonalLoop=1;jettySize=auto;html=1;" edge="1" parent="G-_METhPcSWniNXT3BM8-2" source="G-_METhPcSWniNXT3BM8-87" target="_nXWak0Q8CbcP-SNSe5I-13">
          <mxGeometry relative="1" as="geometry" />
        </mxCell>
        <mxCell id="G-_METhPcSWniNXT3BM8-66" style="edgeStyle=orthogonalEdgeStyle;orthogonalLoop=1;jettySize=auto;html=1;exitX=0;exitY=0.5;exitDx=0;exitDy=0;entryX=0;entryY=0.5;entryDx=0;entryDy=0;endArrow=none;endFill=0;startArrow=none;startFill=0;sourcePerimeterSpacing=0;startSize=11;" edge="1" parent="1" source="G-_METhPcSWniNXT3BM8-15" target="G-_METhPcSWniNXT3BM8-19">
          <mxGeometry relative="1" as="geometry">
            <Array as="points">
              <mxPoint x="-260" y="347" />
              <mxPoint x="-260" y="-64" />
            </Array>
          </mxGeometry>
        </mxCell>
        <mxCell id="G-_METhPcSWniNXT3BM8-112" style="edgeStyle=orthogonalEdgeStyle;orthogonalLoop=1;jettySize=auto;html=1;exitX=0;exitY=0.5;exitDx=0;exitDy=0;entryX=1;entryY=0.5;entryDx=0;entryDy=0;endArrow=none;endFill=0;" edge="1" parent="1" source="G-_METhPcSWniNXT3BM8-9" target="G-_METhPcSWniNXT3BM8-67">
          <mxGeometry relative="1" as="geometry">
            <Array as="points">
              <mxPoint x="-353" y="305" />
              <mxPoint x="-353" y="229" />
            </Array>
          </mxGeometry>
        </mxCell>
        <mxCell id="G-_METhPcSWniNXT3BM8-113" value="DiscountRate&lt;div&gt;-&lt;/div&gt;&lt;div&gt;Double&lt;/div&gt;" style="edgeStyle=orthogonalEdgeStyle;orthogonalLoop=1;jettySize=auto;html=1;exitX=0;exitY=0.5;exitDx=0;exitDy=0;entryX=1;entryY=0.5;entryDx=0;entryDy=0;" edge="1" parent="1" source="G-_METhPcSWniNXT3BM8-29" target="G-_METhPcSWniNXT3BM8-111">
          <mxGeometry x="-0.2222" relative="1" as="geometry">
            <Array as="points">
              <mxPoint x="-299" y="-50" />
              <mxPoint x="-299" y="525" />
            </Array>
            <mxPoint as="offset" />
          </mxGeometry>
        </mxCell>
        <mxCell id="G-_METhPcSWniNXT3BM8-117" value="Add&lt;div&gt;Product&lt;/div&gt;" style="edgeStyle=orthogonalEdgeStyle;orthogonalLoop=1;jettySize=auto;html=1;exitX=0.5;exitY=1;exitDx=0;exitDy=0;entryX=0;entryY=0.5;entryDx=0;entryDy=0;" edge="1" parent="1" source="G-_METhPcSWniNXT3BM8-111" target="G-_METhPcSWniNXT3BM8-9">
          <mxGeometry x="0.3515" relative="1" as="geometry">
            <Array as="points">
              <mxPoint x="-661" y="588" />
              <mxPoint x="-330" y="588" />
              <mxPoint x="-330" y="305" />
            </Array>
            <mxPoint y="1" as="offset" />
          </mxGeometry>
        </mxCell>
        <mxCell id="_nXWak0Q8CbcP-SNSe5I-2" value="check&lt;div&gt;and&lt;/div&gt;&lt;div&gt;calculate&lt;/div&gt;" style="edgeStyle=orthogonalEdgeStyle;orthogonalLoop=1;jettySize=auto;html=1;exitX=1;exitY=0.5;exitDx=0;exitDy=0;entryX=0;entryY=0.5;entryDx=0;entryDy=0;startArrow=classic;startFill=1;" edge="1" parent="1" source="G-_METhPcSWniNXT3BM8-111" target="G-_METhPcSWniNXT3BM8-6">
          <mxGeometry x="-0.131" y="-5" relative="1" as="geometry">
            <Array as="points">
              <mxPoint x="-279" y="525" />
              <mxPoint x="-279" y="265" />
            </Array>
            <mxPoint as="offset" />
          </mxGeometry>
        </mxCell>
        <mxCell id="_nXWak0Q8CbcP-SNSe5I-3" style="edgeStyle=orthogonalEdgeStyle;orthogonalLoop=1;jettySize=auto;html=1;entryX=0;entryY=0.5;entryDx=0;entryDy=0;endArrow=none;endFill=0;" edge="1" parent="1" source="G-_METhPcSWniNXT3BM8-44" target="G-_METhPcSWniNXT3BM8-71">
          <mxGeometry relative="1" as="geometry">
            <Array as="points">
              <mxPoint x="-944" y="754" />
              <mxPoint x="-944" y="258" />
            </Array>
          </mxGeometry>
        </mxCell>
        <mxCell id="_nXWak0Q8CbcP-SNSe5I-4" value="&lt;h1 style=&quot;margin-top: 0px;&quot;&gt;View Flow&lt;/h1&gt;&lt;p&gt;1. SeedMoney(사용자 입력 후 저장)&lt;/p&gt;&lt;p&gt;2. 메뉴 루프&lt;/p&gt;" style="text;html=1;whiteSpace=wrap;overflow=hidden;rounded=0;" vertex="1" parent="1">
          <mxGeometry x="-92" y="656" width="228" height="120" as="geometry" />
        </mxCell>
        <mxCell id="_nXWak0Q8CbcP-SNSe5I-6" value="&lt;h1 style=&quot;margin-top: 0px;&quot;&gt;&lt;span style=&quot;font-size: 12px; font-weight: 400;&quot;&gt;1. 메뉴 선택(1: 제품목록 / 2: 마이페이지 / 3: 종료)&lt;/span&gt;&lt;/h1&gt;&lt;div&gt;&lt;span style=&quot;font-size: 12px; font-weight: 400;&quot;&gt;2. 사용자 입력 처리&lt;/span&gt;&lt;/div&gt;" style="text;html=1;whiteSpace=wrap;overflow=hidden;rounded=0;" vertex="1" parent="1">
          <mxGeometry x="-75" y="740" width="289" height="78" as="geometry" />
        </mxCell>
        <mxCell id="_nXWak0Q8CbcP-SNSe5I-7" value="&lt;h1 style=&quot;margin-top: 0px;&quot;&gt;1. 제품목록&lt;/h1&gt;&lt;p&gt;1. ProductManager.ProductList &#39;get&#39;하여 제품목록 출력(인덱싱 번호 포함)&lt;/p&gt;&lt;p&gt;*returnType: ArrayList&amp;lt;Product&amp;gt;&lt;/p&gt;&lt;p&gt;- 제품명: Product.name&lt;/p&gt;&lt;p&gt;- 가격: Product.price&lt;/p&gt;&lt;p&gt;&lt;br&gt;&lt;/p&gt;&lt;p&gt;=&amp;gt; 0: {Product.name} - {Product.price}&lt;/p&gt;&lt;p&gt;...&lt;/p&gt;&lt;p&gt;&lt;br&gt;&lt;/p&gt;&lt;p&gt;2. 사용자 입력(제품 인덱스 번호 처리를 위한 정수값 입력)&lt;/p&gt;&lt;p&gt;- 필요 시 &#39;q&#39; 와 같은 이스케이프 루틴 구성&lt;/p&gt;&lt;p&gt;&lt;br&gt;&lt;/p&gt;&lt;p&gt;3. 선택상품 구입 루틴&lt;/p&gt;&lt;p&gt;- 수량(정수값) 사용자 입력 받기&lt;/p&gt;&lt;p&gt;- 선택 제품과 수량 값 사용해 OrderManager의 CreateOrder 요청&lt;/p&gt;&lt;p&gt;(product, quantity)&lt;/p&gt;&lt;p&gt;&lt;br&gt;&lt;/p&gt;&lt;p&gt;4. 완료&lt;/p&gt;" style="text;html=1;whiteSpace=wrap;overflow=hidden;rounded=0;" vertex="1" parent="1">
          <mxGeometry x="230" y="600" width="332" height="518" as="geometry" />
        </mxCell>
        <mxCell id="_nXWak0Q8CbcP-SNSe5I-8" value="View" style="swimlane;fontStyle=1;align=center;verticalAlign=top;childLayout=stackLayout;horizontal=1;startSize=26;horizontalStack=0;resizeParent=1;resizeParentMax=0;resizeLast=0;collapsible=1;marginBottom=0;whiteSpace=wrap;html=1;" vertex="1" parent="1">
          <mxGeometry x="-84" y="839" width="233" height="118" as="geometry" />
        </mxCell>
        <mxCell id="_nXWak0Q8CbcP-SNSe5I-9" value="- user : User&lt;div&gt;- productManager : ProductManager&lt;/div&gt;&lt;div&gt;- orderManager : OrderManager&lt;/div&gt;" style="text;strokeColor=#d6b656;fillColor=#fff2cc;align=left;verticalAlign=top;spacingLeft=4;spacingRight=4;overflow=hidden;rotatable=0;points=[[0,0.5],[1,0.5]];portConstraint=eastwest;whiteSpace=wrap;html=1;" vertex="1" parent="_nXWak0Q8CbcP-SNSe5I-8">
          <mxGeometry y="26" width="233" height="58" as="geometry" />
        </mxCell>
        <mxCell id="_nXWak0Q8CbcP-SNSe5I-10" value="" style="line;strokeWidth=1;fillColor=none;align=left;verticalAlign=middle;spacingTop=-1;spacingLeft=3;spacingRight=3;rotatable=0;labelPosition=right;points=[];portConstraint=eastwest;strokeColor=inherit;" vertex="1" parent="_nXWak0Q8CbcP-SNSe5I-8">
          <mxGeometry y="84" width="233" height="8" as="geometry" />
        </mxCell>
        <mxCell id="_nXWak0Q8CbcP-SNSe5I-11" value="+ ..." style="text;strokeColor=none;fillColor=none;align=left;verticalAlign=top;spacingLeft=4;spacingRight=4;overflow=hidden;rotatable=0;points=[[0,0.5],[1,0.5]];portConstraint=eastwest;whiteSpace=wrap;html=1;" vertex="1" parent="_nXWak0Q8CbcP-SNSe5I-8">
          <mxGeometry y="92" width="233" height="26" as="geometry" />
        </mxCell>
        <mxCell id="_nXWak0Q8CbcP-SNSe5I-12" value="&lt;h1 style=&quot;margin-top: 0px;&quot;&gt;2. 마이페이지&lt;/h1&gt;&lt;p&gt;1. user의 .toString() 요청&lt;/p&gt;&lt;p&gt;* sout(&quot;====== MyPage ======&quot;);&lt;/p&gt;&lt;p&gt;같은 헤더 부분은 View에서 출력해주세요&lt;/p&gt;" style="text;html=1;whiteSpace=wrap;overflow=hidden;rounded=0;" vertex="1" parent="1">
          <mxGeometry x="620" y="588" width="332" height="154" as="geometry" />
        </mxCell>
      </root>
    </mxGraphModel>
  </diagram>
</mxfile>
